Coordinates
version=1
nRows=22
nColumns=24
inDegrees=yes

Units are S.I. units (second, meters, Newtons, ...)
Angles are in degrees.

endheader
time	pelvis_tilt	pelvis_list	pelvis_rotation	pelvis_tx	pelvis_ty	pelvis_tz	hip_flexion_r	hip_adduction_r	hip_rotation_r	knee_angle_r	ankle_angle_r	subtalar_angle_r	mtp_angle_r	hip_flexion_l	hip_adduction_l	hip_rotation_l	knee_angle_l	ankle_angle_l	subtalar_angle_l	mtp_angle_l	lumbar_extension	lumbar_bending	lumbar_rotation
      1.15450000	      8.35242478	      1.05050817	     -1.62904021	      0.10945929	      1.03310360	      0.32957934	      7.18938566	     -5.47426101	     -8.18327355	    -58.70679615	      6.39168851	     -0.65914880	      3.85872288	      0.70145745	      3.18203983	     -2.22788945	    -12.38977207	      0.56030317	    -19.92084996	    -11.04199843	    -21.46942702	     -3.21282787	      1.29070120
      1.15866667	      8.43670575	      0.83972154	     -1.42712833	      0.11456030	      1.03412052	      0.32897658	      7.51222821	     -5.26173456	     -8.49295795	    -57.94207677	      6.63433057	     -1.20361277	      3.65306577	      0.17181302	      3.00468513	     -1.94502558	    -12.16037219	      0.67458000	    -19.96155985	    -11.13194433	    -21.61476957	     -2.85228840	      1.04297813
      1.16283333	      8.46929489	      0.62846560	     -1.26083565	      0.11967106	      1.03504351	      0.32845818	      7.88271240	     -5.03810349	     -8.77456597	    -57.11277931	      6.81110021	     -1.83630972	      3.40216424	     -0.30659512	      2.82050741	     -1.69372473	    -11.92091135	      0.76831333	    -20.04662590	    -11.23528557	    -21.69303796	     -2.51058841	      0.87110507
      1.16700000	      8.52746711	      0.41833642	     -1.10386100	      0.12478627	      1.03597763	      0.32795413	      8.20033765	     -4.81867562	     -9.06698400	    -56.20539879	      6.95620323	     -2.50026106	      3.14298972	     -0.82087208	      2.63499307	     -1.45952636	    -11.66184931	      0.85188065	    -20.12898873	    -11.33467741	    -21.79773778	     -2.16960464	      0.71197053
      1.17116667	      8.49496324	      0.23140849	     -1.00666581	      0.12990556	      1.03672636	      0.32756552	      8.62499350	     -4.61289666	     -9.30463213	    -55.26740057	      7.04857571	     -3.22274314	      3.01238166	     -1.24077359	      2.47101806	     -1.27464553	    -11.39508083	      0.91625865	    -20.26081940	    -11.38008200	    -21.78980873	     -1.86840026	      0.62877539
      1.17533333	      8.63741834	     -0.00825155	     -0.77307462	      0.13506452	      1.03778266	      0.32688813	      8.75469521	     -4.38718821	     -9.72533779	    -54.15934900	      7.17347333	     -3.88899281	      2.70832305	     -1.84902231	      2.24986075	     -0.99069234	    -11.12350200	      1.00631309	    -20.30269474	    -11.47903055	    -21.98913252	     -1.46410826	      0.36967617
      1.17950000	      8.60728665	     -0.20045833	     -0.65853282	      0.14021325	      1.03849363	      0.32648005	      9.11230141	     -4.18067062	    -10.01032123	    -53.06238919	      7.21505250	     -4.62775319	      2.53536312	     -2.27600760	      2.07562395	     -0.79134254	    -10.84317340	      1.05894114	    -20.45199798	    -11.53197770	    -21.97743538	     -1.16479821	      0.27320903
      1.18366667	      8.76751596	     -0.42932178	     -0.41645984	      0.14539959	      1.03951193	      0.32576873	      9.16550583	     -3.97809771	    -10.48013350	    -51.81476865	      7.31854519	     -5.29266821	      2.16331263	     -2.91101999	      1.86076304	     -0.50808285	    -10.54853304	      1.12877217	    -20.51702870	    -11.63938286	    -22.19072731	     -0.74809494	     -0.00335079
      1.18783333	      8.83946967	     -0.62936696	     -0.22736705	      0.15057765	      1.04033482	      0.32519018	      9.32106548	     -3.79085906	    -10.89431222	    -50.54253503	      7.36858994	     -5.98733692	      1.75405523	     -3.45353158	      1.67381522	     -0.25225447	    -10.24635654	      1.17398709	    -20.65007912	    -11.75261995	    -22.29526383	     -0.39738909	     -0.19882335
      1.19200000	      8.78468159	     -0.80493622	     -0.12336581	      0.15579368	      1.04089557	      0.32479456	      9.62728265	     -3.61124367	    -11.22414307	    -49.25815152	      7.37739677	     -6.69638964	      1.56178812	     -3.85826909	      1.51016252	     -0.10624115	     -9.95451690	      1.21464589	    -20.81362351	    -11.80309150	    -22.23828926	     -0.08944725	     -0.28646525
      1.19616667	      8.97061175	     -1.01811385	      0.13127562	      0.16098690	      1.04184594	      0.32412190	      9.56679773	     -3.41996049	    -11.73935070	    -47.80562984	      7.44551593	     -7.31118086	      1.12618320	     -4.52643946	      1.29561947	      0.19343535	     -9.63709544	      1.27196583	    -20.87591447	    -11.90972239	    -22.47862377	      0.28932695	     -0.58188035
      1.20033333	      9.05616655	     -1.20189272	      0.32385957	      0.16619778	      1.04256572	      0.32357358	      9.62375304	     -3.24782560	    -12.19733954	    -46.34139816	      7.47557774	     -7.93962086	      0.65505675	     -5.08735602	      1.11323581	      0.43200725	     -9.32172917	      1.30880337	    -21.01347106	    -12.02274788	    -22.59033422	      0.62718654	     -0.78215698
      1.20450000	      9.11933221	     -1.37306497	      0.50097520	      0.17143041	      1.04320552	      0.32308873	      9.68416349	     -3.08164476	    -12.64771333	    -44.82716916	      7.50285377	     -8.53056484	      0.16627877	     -5.62485694	      0.93820435	      0.64361785	     -9.00656456	      1.34701238	    -21.13985582	    -12.13607526	    -22.67185150	      0.94372859	     -0.97812484
      1.20866667	      9.18869189	     -1.55450600	      0.67846020	      0.17671641	      1.04383132	      0.32259579	      9.69900520	     -2.90372007	    -13.11157213	    -43.23356688	      7.51028941	     -8.97825044	     -0.51238276	     -6.17915129	      0.74994553	      0.84720591	     -8.67403418	      1.37766365	    -21.28690771	    -12.29064976	    -22.75194125	      1.28161869	     -1.20911215
      1.21283333	      9.21971317	     -1.68053000	      0.83220271	      0.18191695	      1.04429749	      0.32223540	      9.76593559	     -2.77054932	    -13.55248961	    -41.64551975	      7.53388801	     -9.57848935	     -0.99288074	     -6.67186151	      0.61262493	      1.02557313	     -8.37684398	      1.42998757	    -21.36956817	    -12.39618124	    -22.80079827	      1.52288868	     -1.35082633
      1.21700000	      9.25729627	     -1.81384202	      0.97252890	      0.18717386	      1.04473652	      0.32191157	      9.79198586	     -2.62127182	    -13.98451099	    -39.98896275	      7.55430105	    -10.04247133	     -1.44344052	     -7.18409185	      0.46561577	      1.18237031	     -8.06119971	      1.46943294	    -21.47649686	    -12.49365761	    -22.84575606	      1.78209000	     -1.50161431
      1.22116667	      9.29208626	     -1.93158974	      1.10713087	      0.19244357	      1.04512449	      0.32161896	      9.79809188	     -2.48419386	    -14.41954118	    -38.28563922	      7.56940252	    -10.42744955	     -1.92814632	     -7.69505120	      0.33151877	      1.32589678	     -7.74363110	      1.51232547	    -21.56767654	    -12.59695266	    -22.88890064	      2.01837070	     -1.67617830
      1.22533333	      9.22546611	     -2.02154948	      1.18699618	      0.19769968	      1.04528995	      0.32149184	      9.92071815	     -2.35649831	    -14.78537112	    -36.56863973	      7.49506045	    -10.80993951	     -2.21418216	     -8.08966902	      0.22894085	      1.43316182	     -7.45061070	      1.58505136	    -21.66747856	    -12.65681292	    -22.81547806	      2.18969247	     -1.75234965
      1.22950000	      9.23549561	     -2.11888974	      1.29269334	      0.20299398	      1.04553441	      0.32134514	      9.91483120	     -2.21638018	    -15.19147196	    -34.78021358	      7.47635960	    -11.10496636	     -2.54164228	     -8.57269540	      0.10823765	      1.52840781	     -7.14496420	      1.65001277	    -21.71468805	    -12.72491875	    -22.82638317	      2.38353558	     -1.89414612
      1.23366667	      9.23115730	     -2.19455022	      1.37273047	      0.20826793	      1.04568568	      0.32129368	      9.91670616	     -2.08658665	    -15.56680221	    -32.97006501	      7.46460124	    -11.32886086	     -2.86073087	     -9.03747373	      0.00862905	      1.59257501	     -6.84689461	      1.71404149	    -21.75700114	    -12.79154859	    -22.82900817	      2.53932706	     -2.00372566
      1.23783333	      9.22351009	     -2.24977714	      1.43042027	      0.21355326	      1.04577039	      0.32131131	      9.90844400	     -1.96709070	    -15.91632442	    -31.13202960	      7.43918617	    -11.50047324	     -3.18915410	     -9.50125853	     -0.06998363	      1.62640133	     -6.55069751	      1.79050805	    -21.77674565	    -12.86119092	    -22.81976555	      2.66753151	     -2.10502320
      1.24200000	      9.24445410	     -2.28660301	      1.45363655	      0.21885672	      1.04583963	      0.32141054	      9.85485080	     -1.85930870	    -16.23879199	    -29.26872371	      7.42141736	    -11.45581692	     -3.96654913	    -10.00448617	     -0.12836699	      1.59985139	     -6.24594841	      1.86716051	    -21.76462244	    -13.03526675	    -22.84960113	      2.75987022	     -2.24455911
